<svg width="20" height="16" viewBox="0 0 20 16" fill="none" xmlns="http://www.w3.org/2000/svg">
<g clip-path="url(#clip0_75_43)">
<path d="M10.9819 7.98646L12.8744 10.1496L15.4194 11.7758L15.8621 8.00011L15.4194 4.30957L12.8256 5.73812L10.9819 7.98646Z" fill="#00832D"/>
<path d="M0 11.4244V14.6419C0 15.3765 0.596322 15.973 1.33111 15.973H4.54855L5.21479 13.542L4.54855 11.4244L2.34116 10.7582L0 11.4244Z" fill="#0066DA"/>
<path d="M4.54855 0L0 4.54855L2.34131 5.21319L4.54855 4.54855L5.20265 2.45983L4.54855 0Z" fill="#E94235"/>
<path d="M0 11.4259H4.54847V4.54846H0V11.4259Z" fill="#2684FC"/>
<path d="M18.3247 1.92596L15.4189 4.30973V11.7759L18.3366 14.1689C18.7734 14.5111 19.4123 14.1992 19.4123 13.644V2.44023C19.4123 1.87886 18.7582 1.56857 18.3246 1.92603" fill="#00AC47"/>
<path d="M10.9816 7.98645V11.4244H4.54834V15.973H14.088C14.8228 15.973 15.419 15.3765 15.419 14.6418V11.7758L10.9816 7.98645Z" fill="#00AC47"/>
<path d="M14.088 0H4.54834V4.54855H10.9816V7.9865L15.4191 4.30954V1.33118C15.4191 0.596398 14.8228 7.58294e-05 14.088 7.58294e-05" fill="#FFBA00"/>
</g>
<defs>
<clipPath id="clip0_75_43">
<rect width="19.4123" height="16" fill="white"/>
</clipPath>
</defs>
</svg>
