<svg width="167" height="24" viewBox="0 0 167 24" fill="none" xmlns="http://www.w3.org/2000/svg">
<path d="M24.8229 4.8829C23.9344 4.8829 23.2384 4.67081 22.7351 4.24663C22.2317 3.82245 21.9799 3.21571 21.9795 2.42641C21.9795 1.7166 22.2362 1.13455 22.7496 0.680287C23.263 0.22602 23.9541 -0.000741053 24.8229 1.81928e-06C25.7117 1.81928e-06 26.403 0.212093 26.8967 0.636273C27.3904 1.06045 27.638 1.65717 27.6395 2.42641C27.6395 3.15628 27.3878 3.74817 26.8844 4.20206C26.3811 4.65596 25.6939 4.8829 24.8229 4.8829ZM22.4535 23.7041V7.98848H27.1934V23.7002L22.4535 23.7041Z" fill="white"/>
<path d="M30.1836 23.7041V1.80408H34.9235V23.7041H30.1836Z" fill="white"/>
<path d="M37.7065 23.7041V1.80408H42.4464V23.7041H37.7065Z" fill="white"/>
<path d="M47.8361 4.8829C46.9472 4.8829 46.2511 4.67081 45.7477 4.24663C45.2444 3.82245 44.9927 3.21571 44.9927 2.42641C44.9927 1.7166 45.2492 1.13455 45.7622 0.680287C46.2752 0.22602 46.9665 -0.000741053 47.8361 1.81928e-06C48.7242 1.81928e-06 49.4153 0.212093 49.9093 0.636273C50.4034 1.06045 50.6502 1.65717 50.6499 2.42641C50.6499 3.15628 50.398 3.74817 49.8943 4.20206C49.3905 4.65596 48.7045 4.8829 47.8361 4.8829ZM45.4661 23.7041V7.98848H50.206V23.7002L45.4661 23.7041Z" fill="white"/>
<path d="M60.5719 24C58.9325 24 57.4761 23.6449 56.2029 22.9347C54.9576 22.2522 53.9152 21.2526 53.1816 20.0375C52.4411 18.8143 52.0708 17.4136 52.0708 15.8354C52.0708 14.2572 52.4403 12.8554 53.1794 11.63C53.9126 10.4138 54.955 9.41325 56.2006 8.73002C57.4743 8.01984 58.9306 7.66456 60.5697 7.66418C62.2087 7.66381 63.6649 8.01909 64.9382 8.73002C66.1816 9.41094 67.2196 10.4123 67.9444 11.63C68.6749 12.8535 69.0401 14.2544 69.0401 15.8326C69.0401 17.4109 68.6749 18.8115 67.9444 20.0347C67.2193 21.2513 66.1812 22.2517 64.9382 22.9319C63.666 23.6443 62.2106 24.0003 60.5719 24ZM60.5719 19.916C61.2823 19.916 61.9143 19.7385 62.4679 19.3834C63.0236 19.025 63.4735 18.5249 63.771 17.9348C64.0867 17.3234 64.2354 16.623 64.2171 15.8337C64.2365 15.0448 64.0878 14.3391 63.771 13.7166C63.477 13.1197 63.0267 12.6135 62.4679 12.2518C61.9147 11.8963 61.2827 11.7186 60.5719 11.7186C59.8969 11.7085 59.2335 11.8937 58.6615 12.2518C58.0957 12.6097 57.6396 13.1165 57.3432 13.7166C57.0269 14.338 56.8782 15.0437 56.8971 15.8337C56.877 16.6227 57.0257 17.323 57.3432 17.9348C57.6432 18.528 58.0988 19.0287 58.6615 19.3834C59.2335 19.7413 59.897 19.9263 60.5719 19.916Z" fill="white"/>
<path d="M70.6711 23.7041V7.98843H75.1734L75.3218 11.1843L74.3738 11.5397C74.5909 10.8295 74.9812 10.1834 75.5448 9.6014C76.1249 9.00745 76.8135 8.53009 77.5735 8.19514C78.3552 7.84181 79.2037 7.66018 80.0616 7.6625C81.2468 7.6625 82.244 7.90393 83.0533 8.3868C83.8626 8.86967 84.4744 9.59118 84.8885 10.5513C85.3034 11.5085 85.5106 12.6776 85.5103 14.0586V23.7041H80.7419V14.4414C80.7419 13.81 80.6531 13.2872 80.4754 12.873C80.3162 12.4797 80.0293 12.1514 79.6607 11.9409C79.2949 11.7336 78.8456 11.6398 78.3129 11.6595C77.9196 11.6561 77.5288 11.7214 77.158 11.8523C76.8154 11.9723 76.5023 12.164 76.2396 12.4145C75.9869 12.6556 75.781 12.9414 75.6324 13.2574C75.4822 13.582 75.4061 13.9357 75.4093 14.2932V23.7041H70.6694H70.6711Z" fill="white"/>
<path d="M93.3001 24C91.76 24 90.403 23.7536 89.2294 23.2607C88.0558 22.7678 87.1229 22.1068 86.4307 21.2778L89.3036 18.7917C89.8884 19.386 90.5959 19.8456 91.3769 20.1384C92.1471 20.4248 92.8778 20.5678 93.5689 20.5674C93.8186 20.5707 94.0677 20.5407 94.3095 20.4782C94.5059 20.4288 94.6915 20.3436 94.857 20.227C94.9984 20.1263 95.1149 19.9949 95.1978 19.8425C95.2794 19.6822 95.32 19.5042 95.316 19.3244C95.316 18.9299 95.1383 18.6242 94.7829 18.4073C94.6056 18.3089 94.3094 18.1904 93.8946 18.0518C93.4797 17.9133 92.9466 17.7554 92.2953 17.5783C91.3659 17.3416 90.5612 17.0607 89.8813 16.7353C89.2013 16.4099 88.6437 16.0299 88.2084 15.5953C87.8225 15.1953 87.5114 14.7294 87.29 14.2197C87.0725 13.7164 86.9639 13.1491 86.9643 12.5176C86.9551 11.8223 87.1341 11.1374 87.4824 10.5353C87.8375 9.93298 88.3119 9.40936 88.8764 8.9964C89.4841 8.54984 90.166 8.2141 90.8906 8.00467C91.6546 7.77746 92.4478 7.66278 93.2449 7.66425C94.0811 7.66134 94.9145 7.76089 95.7264 7.96065C96.492 8.14895 97.2327 8.42705 97.9329 8.78914C98.5943 9.1302 99.207 9.55818 99.7547 10.0617L97.2666 12.8436C96.5269 12.1534 95.6484 11.6288 94.6897 11.3047C94.2708 11.1567 93.8308 11.0767 93.3866 11.0679C93.1237 11.0651 92.8613 11.0899 92.6037 11.142C92.3976 11.1824 92.2015 11.2629 92.0265 11.3788C91.8753 11.4746 91.752 11.6084 91.6688 11.7668C91.5856 11.9252 91.5455 12.1026 91.5525 12.2814C91.5528 12.4803 91.6093 12.6752 91.7153 12.8436C91.8294 13.0275 91.987 13.1806 92.1743 13.2893C92.3717 13.4081 92.6877 13.5415 93.1223 13.6893C93.5568 13.8371 94.1492 14.0195 94.8994 14.2364C95.7212 14.4551 96.5233 14.7421 97.2972 15.0945C97.9686 15.4102 98.5017 15.7851 98.8965 16.2194C99.2126 16.5555 99.4548 16.9541 99.6075 17.3894C99.7683 17.8507 99.8485 18.3362 99.8445 18.8246C99.8445 19.8308 99.5631 20.7236 99.0003 21.5028C98.4374 22.2821 97.6621 22.8926 96.6744 23.3342C95.6885 23.7785 94.5637 24.0004 93.3001 24Z" fill="white"/>
<path d="M110.716 24C109.234 24 107.872 23.7387 106.628 23.2161C105.408 22.7103 104.309 21.954 103.4 20.9964C102.477 20.0175 101.757 18.8659 101.281 17.6078C100.777 16.3059 100.525 14.8855 100.525 13.3466C100.525 11.8275 100.777 10.4316 101.281 9.15908C101.768 7.91338 102.498 6.77697 103.428 5.81615C104.342 4.86846 105.441 4.11778 106.656 3.61037C107.88 3.09705 109.223 2.84057 110.684 2.84094C111.66 2.84246 112.63 2.99719 113.557 3.29948C114.485 3.59585 115.367 4.01903 116.178 4.55698C116.936 5.05042 117.602 5.67115 118.148 6.39169L116.548 8.04922C116.056 7.45886 115.483 6.94081 114.845 6.51036C114.218 6.08365 113.536 5.74507 112.816 5.50414C112.129 5.27136 111.409 5.1515 110.684 5.14923C109.622 5.14061 108.569 5.347 107.588 5.75598C106.654 6.14422 105.812 6.72388 105.115 7.45753C104.41 8.21008 103.861 9.0953 103.501 10.0617C103.116 11.0679 102.924 12.1636 102.924 13.3489C102.924 14.5724 103.116 15.6969 103.501 16.7224C103.858 17.7036 104.416 18.5992 105.141 19.3512C105.865 20.1031 106.739 20.6948 107.707 21.0877C108.685 21.4922 109.776 21.6943 110.98 21.6939C112.426 21.6842 113.84 21.2744 115.067 20.51C115.631 20.1605 116.141 19.7313 116.582 19.2358L117.767 21.1591C117.313 21.7118 116.705 22.2 115.945 22.6238C115.155 23.0601 114.315 23.3983 113.442 23.6306C112.554 23.8742 111.637 23.9984 110.716 24Z" fill="#F15A24"/>
<path d="M126.619 24C125.079 24 123.712 23.6547 122.517 22.9642C121.333 22.2842 120.36 21.2909 119.705 20.0937C119.024 18.871 118.683 17.4801 118.683 15.9212C118.683 14.3824 119.024 13.0112 119.705 11.8077C120.367 10.6229 121.34 9.64062 122.519 8.96626C123.713 8.27725 125.08 7.93274 126.619 7.93274C128.139 7.93274 129.496 8.27799 130.69 8.96849C131.869 9.643 132.841 10.6253 133.504 11.81C134.185 13.0134 134.526 14.3846 134.526 15.9234C134.526 17.4835 134.185 18.8743 133.504 20.096C132.848 21.2932 131.874 22.2865 130.69 22.9664C129.497 23.6558 128.141 24.0003 126.619 24ZM126.619 21.8989C127.705 21.8989 128.671 21.6376 129.519 21.115C130.362 20.5984 131.049 19.8615 131.504 18.9839C131.977 18.0861 132.214 17.0647 132.215 15.9195C132.215 14.7744 131.978 13.7583 131.504 12.8714C131.05 12.0046 130.362 11.2819 129.519 10.7848C128.67 10.2815 127.703 10.0301 126.619 10.0304C125.536 10.0308 124.563 10.2823 123.702 10.7848C122.847 11.2834 122.149 12.0113 121.688 12.8858C121.204 13.784 120.972 14.7952 120.992 15.9195C120.972 17.0639 121.204 18.0854 121.688 18.9839C122.154 19.8633 122.85 20.5998 123.702 21.115C124.562 21.6376 125.534 21.8989 126.619 21.8989Z" fill="#F15A24"/>
<path d="M142.556 24C141.153 24 139.894 23.6547 138.779 22.9642C137.664 22.2737 136.785 21.3218 136.143 20.1083C135.501 18.8955 135.181 17.5195 135.181 15.9803C135.181 14.4203 135.507 13.0343 136.158 11.8223C136.81 10.6103 137.689 9.65847 138.794 8.96685C139.9 8.27747 141.144 7.93278 142.526 7.93278C143.286 7.93104 144.041 8.05086 144.762 8.28768C145.458 8.5119 146.113 8.84657 146.702 9.27886C147.253 9.6804 147.733 10.1698 148.124 10.7275C148.484 11.2322 148.717 11.8156 148.805 12.429L148.124 12.1922V1.80408H150.345V23.7041H148.153L148.094 19.8559L148.657 19.6486C148.578 20.2013 148.356 20.7399 147.991 21.2644C147.609 21.8034 147.144 22.2779 146.613 22.6701C146.042 23.093 145.408 23.4219 144.733 23.6445C144.032 23.8814 143.296 24.0015 142.556 24ZM142.882 21.958C143.908 21.958 144.826 21.7015 145.636 21.1886C146.446 20.6756 147.083 19.9655 147.546 19.058C148.01 18.151 148.242 17.1152 148.243 15.9508C148.243 14.7863 148.011 13.7554 147.546 12.858C147.109 11.9911 146.45 11.2558 145.635 10.7275C144.824 10.2048 143.906 9.94336 142.88 9.94299C141.814 9.94299 140.881 10.2045 140.081 10.7275C139.281 11.2504 138.649 11.9606 138.185 12.858C137.724 13.7562 137.493 14.7871 137.493 15.9508C137.493 17.0952 137.72 18.1211 138.175 19.0285C138.629 19.9359 139.261 20.6511 140.071 21.1741C140.878 21.6967 141.815 21.958 142.882 21.958Z" fill="#F15A24"/>
<path d="M160.001 24C158.461 24 157.093 23.6646 155.899 22.9938C154.719 22.3389 153.749 21.3646 153.1 20.1829C152.428 18.9795 152.093 17.5983 152.093 16.0394C152.093 14.8366 152.28 13.7467 152.655 12.7694C153.013 11.8216 153.551 10.9521 154.24 10.2093C154.926 9.47663 155.758 8.89681 156.684 8.50774C157.659 8.09835 158.707 7.89208 159.764 7.90156C160.81 7.90156 161.763 8.08895 162.623 8.46373C163.461 8.82453 164.217 9.35318 164.844 10.0171C165.475 10.6926 165.954 11.4947 166.25 12.3699C166.566 13.2774 166.704 14.2737 166.665 15.3591L166.636 16.3948H153.752L153.426 14.53H164.947L164.414 15.0315V14.3228C164.37 13.5982 164.157 12.894 163.792 12.2663C163.413 11.6008 162.867 11.0451 162.208 10.6533C161.526 10.2392 160.712 10.0321 159.764 10.0321C158.659 10.0321 157.701 10.254 156.891 10.6979C156.082 11.1418 155.459 11.7987 155.025 12.6686C154.591 13.537 154.373 14.6123 154.373 15.8945C154.373 17.1173 154.61 18.1775 155.084 19.0753C155.541 19.9551 156.246 20.6809 157.113 21.1618C157.992 21.6555 159.053 21.9021 160.297 21.9017C161.038 21.8998 161.773 21.7747 162.472 21.5318C163.192 21.2855 163.987 20.7973 164.856 20.067L166.011 21.6649C165.528 22.1401 164.98 22.5437 164.382 22.8634C163.726 23.2187 163.03 23.4969 162.309 23.6924C161.557 23.8984 160.781 24.0018 160.001 24Z" fill="#F15A24"/>
<path d="M16.3068 1.81018V1.80127H1.44483V4.19313H11.9846L0 23.7738H6.57895L20.0224 1.81018H16.3068Z" fill="white"/>
<path d="M18.7594 21.382H10.502V23.7738H18.7594V21.382Z" fill="white"/>
</svg>
