<svg width="34" height="24" viewBox="0 0 34 24" fill="none" xmlns="http://www.w3.org/2000/svg">
<path d="M14.6154 0V5.76923C9.76923 5.76923 7.30769 8.30769 7.30769 11V12.1538C8.15385 11.6923 9.07692 11.5385 10.0769 11.5385C13 11.5385 15.4615 13.5385 15.4615 17.5385C15.4615 21.0769 12.6154 24 8.46154 24C3.38462 24 0 19.6923 0 13.4615C0 4.84615 6 0.0769221 14.6154 0ZM32.8462 0V5.76923C27.9231 5.76923 25.5385 8.30769 25.5385 11V12.1538C26.3846 11.6923 27.3077 11.5385 28.3077 11.5385C31.1538 11.5385 33.6923 13.5385 33.6923 17.5385C33.6923 21.0769 30.8462 24 26.6154 24C21.6154 24 18.2308 19.6923 18.2308 13.4615C18.2308 4.84615 24.2308 0.0769221 32.8462 0Z" fill="#F15A24"/>
</svg>
