<svg width="71" height="66" viewBox="0 0 71 66" fill="none" xmlns="http://www.w3.org/2000/svg">
<path d="M22.6961 28.5451C22.6961 29.2326 22.7548 29.7826 22.9017 30.2501C23.0485 30.5801 23.254 31.0201 23.5183 31.5151C23.6358 31.6251 23.6652 31.7901 23.6652 31.9276C23.6652 32.1201 23.5477 32.2851 23.2834 32.4776L22.05 33.2476C21.8738 33.3576 21.6976 33.4126 21.5508 33.4126C21.3452 33.4126 21.169 33.3026 20.9635 33.1376C20.6992 32.8626 20.4642 32.5876 20.2587 32.2851C20.0825 31.9826 19.8769 31.6251 19.6713 31.2126C18.1443 32.8901 16.2354 33.7426 13.9155 33.7426C12.271 33.7426 10.9788 33.3026 10.0097 32.4226C9.07 31.5426 8.57077 30.3601 8.57077 28.8751C8.57077 27.3626 9.1581 26.1251 10.3328 25.1351C11.5368 24.2001 13.1226 23.7051 15.1195 23.7051C15.7949 23.7051 16.4116 23.7601 17.2045 23.8701C17.88 23.9526 18.6729 24.0901 19.4364 24.2551V22.9351C19.4364 21.5326 19.1427 20.6251 18.526 19.9926C17.88 19.4151 16.8521 19.1676 15.3544 19.1676C14.6496 19.1676 13.9448 19.2501 13.2401 19.3876C12.5059 19.5526 11.8011 19.7451 11.1257 20.0201C10.8026 20.1301 10.5383 20.2126 10.4502 20.2401C10.3034 20.2951 10.2153 20.2951 10.1272 20.2951C9.8629 20.2951 9.71606 20.1301 9.71606 19.7451V18.8376C9.71606 18.5626 9.74543 18.3426 9.8629 18.2051C9.951 18.0676 10.1272 17.9576 10.3915 17.8751C11.0963 17.4901 11.8892 17.2151 12.8583 16.9951C13.8545 16.7478 14.8818 16.6275 15.9124 16.6376C18.2324 16.6376 19.9356 17.1326 21.0222 18.1226C22.1088 19.1126 22.6374 20.6251 22.6374 22.6326V28.5451H22.6961ZM14.7671 31.3501C15.4132 31.3501 16.0592 31.2401 16.764 31.0201C17.4688 30.8001 18.0855 30.3876 18.6141 29.8376C18.9372 29.4801 19.1721 29.0951 19.3483 28.6551C19.3483 28.2151 19.4951 27.6926 19.4951 27.0601V26.3176C18.9078 26.1251 18.3205 26.1251 17.6744 25.9876C17.0696 25.9253 16.462 25.8886 15.8537 25.8776C14.5322 25.8776 13.5925 26.1251 12.9464 26.6201C12.3003 27.1151 12.0067 27.8026 12.0067 28.7101C12.0067 29.5901 12.2122 30.2501 12.7115 30.6626C13.1813 31.1301 13.8567 31.3501 14.7671 31.3501ZM30.4489 33.3026C30.1643 33.3128 29.8816 33.2561 29.6266 33.1376C29.5385 33.0001 29.3917 32.7526 29.2742 32.4226L24.693 18.2876C24.5755 17.8751 24.5168 17.6826 24.5168 17.5451C24.5168 17.2426 24.6636 17.0776 24.9867 17.0776H26.8955C27.2773 17.0776 27.5416 17.1326 27.659 17.2701C27.8352 17.3801 27.9527 17.6276 28.0702 17.9851L31.3299 30.0851L34.384 17.9851C34.4721 17.6276 34.5895 17.3801 34.7657 17.2701C34.9126 17.1601 35.1769 17.0776 35.4999 17.0776H37.1151C37.4675 17.0776 37.7318 17.1326 37.8786 17.2701C38.0254 17.3801 38.1723 17.6276 38.2604 17.9851L41.3732 30.2501L44.721 17.9851C44.8385 17.6276 44.9853 17.3801 45.1028 17.2701C45.279 17.1601 45.5139 17.0776 45.8663 17.0776H47.687C48.0101 17.0776 48.1863 17.2426 48.1863 17.5451C48.1863 17.6276 48.1569 17.7376 48.1275 17.8751C48.1275 17.8751 48.0688 18.0951 48.0101 18.2876L43.282 32.4226C43.1646 32.8076 43.0471 33.0001 42.8415 33.1376C42.7241 33.2476 42.4598 33.3301 42.1367 33.3301H40.4629C40.0811 33.3301 39.9049 33.2751 39.67 33.1376C39.4725 32.9416 39.3488 32.6905 39.3176 32.4226L36.2928 20.6251L33.268 32.3951C33.1799 32.7526 33.0625 33.0001 32.9156 33.1376C32.6738 33.2628 32.3985 33.32 32.1228 33.3026H30.4489ZM55.5573 33.7976C54.5882 33.7976 53.5016 33.6876 52.5325 33.4676C51.5634 33.2476 50.7999 33.0001 50.3007 32.7526C50.0452 32.6383 49.8309 32.4567 49.684 32.2301C49.6033 32.0762 49.5631 31.9065 49.5665 31.7351V30.8001C49.5665 30.4151 49.7133 30.2501 50.007 30.2501H50.3594C50.4768 30.2501 50.653 30.3876 50.8586 30.4701C51.5047 30.7451 52.2388 30.9651 53.0024 31.1026C53.7953 31.2401 54.5882 31.3226 55.3223 31.3226C56.5557 31.3226 57.5248 31.1301 58.1709 30.7176C58.8463 30.2501 59.1987 29.7276 59.1987 28.9851C59.1987 28.4626 58.9932 28.0501 58.6701 27.6926C58.3177 27.3626 57.6423 27.0326 56.7026 26.7576L53.854 25.9326C52.4444 25.4926 51.3872 24.8876 50.7411 24.0626C50.1107 23.2989 49.7697 22.3604 49.7721 21.3951C49.7721 20.6251 49.9483 19.9651 50.3007 19.3876C50.6531 18.7826 51.1229 18.2876 51.6515 17.8751C52.2976 17.4626 52.9436 17.1601 53.7365 16.9401C54.5001 16.7201 55.3223 16.6101 56.2033 16.6101C56.6145 16.6101 57.055 16.6376 57.5248 16.6926C57.936 16.7476 58.3471 16.8301 58.7582 16.8851C59.1694 16.9951 59.5217 17.0776 59.8741 17.1876C60.2265 17.2976 60.4615 17.4076 60.6964 17.5176C60.9607 17.6551 61.1663 17.7926 61.2837 17.9576C61.4012 18.1226 61.4599 18.3151 61.4599 18.5626V19.4426C61.4599 19.8276 61.3131 20.0201 61.0194 20.0201C60.8726 20.0201 60.6083 19.9376 60.2559 19.8001C59.1694 19.3326 57.9066 19.0851 56.5264 19.0851C55.4104 19.0851 54.5882 19.2501 53.9127 19.6076C53.3254 19.9376 53.0024 20.4876 53.0024 21.2301C53.0024 21.7526 53.2079 22.1926 53.5897 22.5226C53.9715 22.8801 54.7056 23.2101 55.7335 23.5401L58.5233 24.3651C59.9329 24.7501 60.9313 25.3551 61.548 26.1251C62.1354 26.8676 62.429 27.7201 62.429 28.6826C62.429 29.4526 62.2528 30.1676 61.9298 30.8001C61.5774 31.4051 61.1075 31.9551 60.4615 32.3951C59.9035 32.8626 59.1694 33.1926 58.3471 33.4401C57.5248 33.6876 56.5264 33.7976 55.5573 33.7976ZM59.2281 42.7076C52.7968 47.1351 43.4582 49.5001 35.4999 49.5001C24.1938 49.5001 14.0623 45.5951 6.39764 39.1326C5.78095 38.6101 6.33891 37.9226 7.07307 38.3351C15.3544 42.8176 25.5446 45.5401 36.1166 45.5401C43.2527 45.5401 51.0935 44.1651 58.2884 41.2501C59.3749 40.8376 60.2853 41.9651 59.2281 42.7076ZM61.9298 39.8751C61.0782 38.8576 56.4676 39.3801 54.3826 39.6001C53.7659 39.6826 53.6778 39.1601 54.2358 38.7751C57.9066 36.3826 63.9561 37.1251 64.6315 37.8676C65.3363 38.6926 64.4553 44.3576 61.0194 47.0526C60.4615 47.4651 59.9622 47.2451 60.1972 46.7501C60.9901 44.8801 62.7227 40.8101 61.9298 39.8751Z" fill="white" fill-opacity="0.55"/>
</svg>
