<svg width="67" height="66" viewBox="0 0 67 66" fill="none" xmlns="http://www.w3.org/2000/svg">
<path d="M33.2603 16.5C28.8842 16.5 24.6873 18.2384 21.593 21.3327C18.4986 24.4271 16.7603 28.6239 16.7603 33H3.01025C3.01025 16.2938 16.554 2.75 33.2603 2.75C49.9665 2.75 63.5103 16.2938 63.5103 33C63.5103 49.7062 49.9665 63.25 33.2603 63.25V49.5C37.6363 49.5 41.8332 47.7616 44.9275 44.6673C48.0219 41.5729 49.7603 37.3761 49.7603 33C49.7603 28.6239 48.0219 24.4271 44.9275 21.3327C41.8332 18.2384 37.6363 16.5 33.2603 16.5Z" fill="white" fill-opacity="0.55"/>
<path d="M19.5103 49.5V35.75H33.2603V49.5H19.5103ZM8.51025 49.5V60.5H19.5103V49.5H8.51025ZM8.51025 49.5H3.01025V44H8.51025V49.5Z" fill="white" fill-opacity="0.55"/>
</svg>
