<svg width="67" height="66" viewBox="0 0 67 66" fill="none" xmlns="http://www.w3.org/2000/svg">
<path fill-rule="evenodd" clip-rule="evenodd" d="M24.0945 3.43757C21.7102 3.4358 19.3872 4.19307 17.462 5.59969C15.5369 7.00631 14.1094 8.98925 13.3865 11.2613C12.6635 13.5334 12.6826 15.9766 13.441 18.2371C14.1993 20.4975 15.6576 22.4579 17.6045 23.8343C16.1386 24.8712 14.9432 26.2449 14.1186 27.8399C13.2941 29.4349 12.8646 31.2046 12.8662 33.0001C12.8662 36.7841 14.739 40.1336 17.61 42.1658C16.0372 43.2791 14.7774 44.7785 13.9518 46.5196C13.1262 48.2608 12.7625 50.1851 12.8959 52.1075C13.0293 54.0298 13.6551 55.8855 14.7132 57.4959C15.7713 59.1064 17.2261 60.4174 18.9376 61.3029C20.649 62.1884 22.5596 62.6185 24.4854 62.5519C26.4112 62.4853 28.2875 61.9242 29.9337 60.9225C31.5798 59.9209 32.9406 58.5125 33.8849 56.8327C34.8292 55.153 35.3253 53.2585 35.3255 51.3316V41.6956C36.4936 42.6419 37.8399 43.3441 39.2845 43.7604C40.7291 44.1767 42.2425 44.2986 43.7352 44.119C45.2278 43.9394 46.6691 43.4618 47.9737 42.7147C49.2783 41.9676 50.4195 40.9661 51.3298 39.7696C52.24 38.5731 52.9007 37.206 53.2727 35.7494C53.6447 34.2928 53.7204 32.7763 53.4953 31.2898C53.2701 29.8034 52.7488 28.3773 51.9622 27.0962C51.1756 25.815 50.1397 24.7049 48.916 23.8316C50.8629 22.4552 52.3211 20.4948 53.0795 18.2343C53.8378 15.9738 53.8569 13.5306 53.134 11.2586C52.411 8.9865 50.9836 7.00356 49.0584 5.59694C47.1332 4.19032 44.8103 3.43305 42.426 3.43482L24.0945 3.43757ZM31.1977 40.1033H24.0945C23.1617 40.1033 22.238 39.9196 21.3762 39.5626C20.5144 39.2056 19.7313 38.6824 19.0717 38.0228C18.4121 37.3632 17.8889 36.5802 17.5319 35.7184C17.175 34.8566 16.9912 33.9329 16.9912 33.0001C16.9912 32.0673 17.175 31.1436 17.5319 30.2818C17.8889 29.42 18.4121 28.6369 19.0717 27.9773C19.7313 27.3177 20.5144 26.7945 21.3762 26.4375C22.238 26.0805 23.1617 25.8968 24.0945 25.8968H31.1977V33.0001V40.1033ZM24.0945 21.7718H31.1977V7.56257H24.0945C22.2102 7.56257 20.4031 8.31109 19.0708 9.64346C17.7384 10.9758 16.9899 12.7829 16.9899 14.6672C16.9899 16.5515 17.7384 18.3585 19.0708 19.6909C20.4031 21.0233 22.2102 21.7718 24.0945 21.7718ZM49.532 14.6658C49.5327 16.5488 48.7858 18.355 47.4554 19.6874C46.125 21.0199 44.3199 21.7696 42.437 21.7718H35.3227V7.56257H42.4287C43.3615 7.56257 44.2852 7.7463 45.147 8.10327C46.0088 8.46024 46.7919 8.98346 47.4515 9.64306C48.1111 10.3027 48.6343 11.0857 48.9913 11.9475C49.3482 12.8093 49.532 13.733 49.532 14.6658ZM35.3227 32.9918C35.3249 31.1108 36.0731 29.3074 37.4032 27.9773C38.7333 26.6472 40.5367 25.899 42.4177 25.8968H42.4342C43.8384 25.8984 45.2106 26.3162 46.3775 27.0974C47.5443 27.8785 48.4535 28.988 48.9901 30.2856C49.5267 31.5832 49.6667 33.0107 49.3923 34.3879C49.118 35.765 48.4416 37.0299 47.4487 38.0228C46.4558 39.0157 45.1909 39.6921 43.8138 39.9664C42.4366 40.2408 41.0091 40.1008 39.7115 39.5642C38.4139 39.0276 37.3044 38.1184 36.5233 36.9516C35.7421 35.7847 35.3244 34.4125 35.3227 33.0083V32.9918ZM24.0945 44.2283C22.6897 44.2283 21.3165 44.6448 20.1484 45.4252C18.9804 46.2056 18.0699 47.3148 17.5322 48.6126C16.9945 49.9104 16.8537 51.3385 17.1275 52.7163C17.4014 54.0942 18.0776 55.3598 19.0708 56.3534C20.0639 57.3469 21.3293 58.0236 22.707 58.298C24.0847 58.5724 25.5129 58.4321 26.8109 57.8949C28.1089 57.3577 29.2184 56.4477 29.9993 55.2799C30.7801 54.1122 31.1972 52.7391 31.1977 51.3343V44.2283H24.0945Z" fill="white" fill-opacity="0.55"/>
</svg>
