<svg width="67" height="66" viewBox="0 0 67 66" fill="none" xmlns="http://www.w3.org/2000/svg">
<path d="M60.1749 17.9576C60.2024 18.0126 60.2024 18.0951 60.2024 18.1776V29.9751C60.2024 30.2501 60.0374 30.5801 59.7899 30.7176L49.8624 36.4376V47.7401C49.8624 48.0426 49.7249 48.3176 49.4499 48.4826L28.7699 60.3901C28.7149 60.4176 28.6599 60.5001 28.6049 60.5001H27.9999C27.9999 60.5001 27.9999 60.4176 27.8899 60.3901L7.20988 48.4826C7.08315 48.4047 6.97862 48.2954 6.90637 48.1654C6.83413 48.0353 6.79659 47.8889 6.79738 47.7401V12.3751C6.79738 12.2376 6.79738 12.1551 6.82488 12.1001C6.82488 12.0726 6.85238 12.0451 6.85238 12.0176C6.85238 11.9626 6.87988 11.9351 6.90738 11.8801C6.90738 11.8526 6.93488 11.8251 6.96238 11.7976L7.04488 11.7151L7.12738 11.6326C7.15488 11.6051 7.18238 11.5776 7.20988 11.5776L17.5499 5.61009C17.8249 5.50009 18.1549 5.50009 18.3749 5.61009L28.7699 11.5776C28.7974 11.6051 28.8249 11.6051 28.8524 11.6326L28.9349 11.7151L29.0174 11.7976C29.0449 11.8251 29.0724 11.8526 29.0724 11.8801C29.0999 11.9351 29.1274 11.9626 29.1274 12.0176C29.1274 12.0451 29.1549 12.0726 29.1549 12.1001C29.1824 12.1826 29.1824 12.2376 29.1824 12.3751V34.3751L37.8174 29.4801V18.1776C37.8174 18.0951 37.8174 18.0126 37.8449 17.9576L37.8724 17.8751C37.8724 17.8751 37.8999 17.7926 37.9274 17.7376C37.9274 17.7101 37.9549 17.6826 37.9824 17.6551L38.0649 17.5726L38.1474 17.4901C38.1749 17.4626 38.2024 17.4351 38.2299 17.4351L48.6249 11.4676C48.8449 11.3026 49.1749 11.3026 49.4499 11.4676L59.7899 17.4351C59.8174 17.4351 59.8449 17.4626 59.8724 17.4901L59.9549 17.5726L60.0374 17.6551C60.0649 17.6826 60.0649 17.7101 60.0924 17.7376C60.1199 17.7926 60.1199 17.8751 60.1474 17.8751C60.1749 17.8751 60.1749 17.8751 60.1749 17.9576ZM58.4974 29.4801V19.6626L49.8624 24.6126V34.3751L58.4974 29.4801ZM48.1574 47.2451V37.4001L29.1824 48.2351V58.1626L48.1574 47.2451ZM8.50238 13.7501V47.2451L27.4774 58.1626V48.2351L17.5774 42.6251H17.5499C17.5224 42.6251 17.4949 42.6251 17.4674 42.5426C17.4399 42.5426 17.4124 42.5151 17.3849 42.4876L17.3024 42.4051C17.2749 42.3776 17.2749 42.3501 17.2474 42.3226C17.2199 42.2676 17.2199 42.2401 17.1924 42.2126C17.1924 42.1576 17.1649 42.1301 17.1649 42.1026C17.1374 42.0751 17.1374 42.0201 17.1374 41.9926V18.7551L8.50238 13.7501ZM17.9899 7.37009L9.38238 12.3751L17.9899 17.2701L26.6249 12.3751L17.9899 7.37009ZM27.4774 35.4201V13.7501L18.8424 18.7551V40.3976L27.4774 35.4201ZM49.0099 13.2001L40.3749 18.1776L49.0099 23.1276L57.6174 18.1776L49.0099 13.2001ZM48.1574 24.6126L39.5224 19.6626V29.4801L48.1574 34.3751V24.6126ZM28.3299 46.7501L47.2499 35.9151L38.6699 30.9651L19.7499 41.8826L28.3299 46.7501Z" fill="white" fill-opacity="0.55"/>
</svg>
