<svg width="67" height="66" viewBox="0 0 67 66" fill="none" xmlns="http://www.w3.org/2000/svg">
<g clip-path="url(#clip0_75_123)">
<path d="M20.3 19.8L22.082 18.5108C21.8094 18.1343 21.4246 17.8538 20.9827 17.7095C20.5408 17.5653 20.0646 17.5647 19.6224 17.7079C19.1801 17.8511 18.7946 18.1306 18.5211 18.5065C18.2476 18.8824 18.1002 19.3352 18.1 19.8H20.3ZM33.5 61.6C25.9148 61.6 18.6403 58.5868 13.2767 53.2233C7.91321 47.8597 4.9 40.5852 4.9 33H0.5C0.5 41.7521 3.97678 50.1458 10.1655 56.3345C16.3542 62.5232 24.7479 66 33.5 66V61.6ZM62.1 33C62.1 36.7558 61.3602 40.4748 59.923 43.9447C58.4857 47.4147 56.379 50.5675 53.7233 53.2233C51.0675 55.879 47.9147 57.9857 44.4447 59.423C40.9748 60.8602 37.2558 61.6 33.5 61.6V66C42.2521 66 50.6458 62.5232 56.8345 56.3345C63.0232 50.1458 66.5 41.7521 66.5 33H62.1ZM33.5 4.4C37.2558 4.4 40.9748 5.13976 44.4447 6.57705C47.9147 8.01433 51.0675 10.121 53.7233 12.7767C56.379 15.4325 58.4857 18.5853 59.923 22.0553C61.3602 25.5252 62.1 29.2442 62.1 33H66.5C66.5 24.2479 63.0232 15.8542 56.8345 9.66548C50.6458 3.47678 42.2521 0 33.5 0V4.4ZM33.5 0C24.7479 0 16.3542 3.47678 10.1655 9.66548C3.97678 15.8542 0.5 24.2479 0.5 33H4.9C4.9 25.4148 7.91321 18.1403 13.2767 12.7767C18.6403 7.41321 25.9148 4.4 33.5 4.4V0ZM22.5 52.8V19.8H18.1V52.8H22.5ZM18.518 21.0892L47.118 60.6892L50.682 58.1108L22.082 18.5108L18.518 21.0892ZM44.5 17.6V44H48.9V17.6H44.5Z" fill="white" fill-opacity="0.55"/>
</g>
<defs>
<clipPath id="clip0_75_123">
<rect width="66" height="66" fill="white" transform="translate(0.5)"/>
</clipPath>
</defs>
</svg>
