<svg width="67" height="66" viewBox="0 0 67 66" fill="none" xmlns="http://www.w3.org/2000/svg">
<path d="M33.5 5.0874C32.7575 5.0874 31.9875 5.2799 31.355 5.6374L10.895 17.4624C9.575 18.2324 8.75 19.6624 8.75 21.2024V44.7974C8.75 46.3374 9.575 47.7674 10.895 48.5374L16.2575 51.6174C18.87 52.8824 19.75 52.9099 20.96 52.9099C24.81 52.9099 27.0375 50.5724 27.0375 46.5024V23.2099C27.0375 22.8799 26.7625 22.6049 26.4325 22.6049H23.875C23.5175 22.6049 23.2425 22.8799 23.2425 23.2099V46.5024C23.2425 48.3174 21.3725 50.1049 18.375 48.5924L12.7375 45.3749C12.6449 45.3095 12.5692 45.223 12.5166 45.1226C12.464 45.0222 12.436 44.9108 12.435 44.7974V21.2024C12.435 20.9549 12.545 20.7349 12.7375 20.6249L33.1975 8.8274C33.3625 8.7174 33.6375 8.7174 33.8025 8.8274L54.2625 20.6249C54.455 20.7349 54.565 20.9549 54.565 21.2024V44.7974C54.565 45.0174 54.455 45.2374 54.2625 45.3749L33.8025 57.1724C33.6375 57.2824 33.3625 57.2824 33.17 57.1724L28 54.0374C27.78 53.9549 27.56 53.9274 27.4225 54.0099C25.965 54.8349 25.69 54.9999 24.3425 55.4124C24.0125 55.5224 23.49 55.7149 24.535 56.2924L31.355 60.3349C32.015 60.7199 32.73 60.9124 33.5 60.9124C34.27 60.9124 34.985 60.7199 35.645 60.3349L56.105 48.5374C57.425 47.7674 58.25 46.3374 58.25 44.7974V21.2024C58.25 19.6624 57.425 18.2324 56.105 17.4624L35.645 5.6374C35.0125 5.2799 34.27 5.0874 33.5 5.0874ZM39 21.9999C33.17 21.9999 29.6775 24.4474 29.6775 28.5724C29.6775 32.9999 33.1425 34.2924 38.7525 34.8424C45.435 35.5024 45.9575 36.4924 45.9575 37.8124C45.9575 40.0949 44.115 41.0574 39.825 41.0574C34.38 41.0574 33.225 39.7099 32.8125 37.0149C32.7835 36.8756 32.7077 36.7505 32.5976 36.6604C32.4875 36.5703 32.3498 36.5207 32.2075 36.5199H29.5675C29.2375 36.5199 28.99 36.7674 28.99 37.1249C28.99 40.5349 30.86 44.6599 39.825 44.6599C46.2875 44.6599 50 42.1024 50 37.6474C50 33.2199 47.03 32.0649 40.7325 31.2124C34.38 30.3874 33.7475 29.9474 33.7475 28.4624C33.7475 27.2249 34.2975 25.5749 39 25.5749C43.125 25.5749 44.7475 26.4824 45.38 29.3149C45.435 29.5899 45.6825 29.7824 45.9575 29.7824H48.625C48.7625 29.7824 48.9275 29.7274 49.0375 29.5899C49.1475 29.4799 49.23 29.3149 49.175 29.1499C48.79 24.2549 45.545 21.9999 39 21.9999Z" fill="white" fill-opacity="0.55"/>
</svg>
