<svg width="67" height="66" viewBox="0 0 67 66" fill="none" xmlns="http://www.w3.org/2000/svg">
<g clip-path="url(#clip0_75_127)">
<path d="M26.9002 11H31.3002M20.3002 17.6V6.59995C20.3002 5.433 20.7638 4.31384 21.5889 3.48868C22.4141 2.66352 23.5332 2.19995 24.7002 2.19995H42.3002C43.4672 2.19995 44.5863 2.66352 45.4115 3.48868C46.2366 4.31384 46.7002 5.433 46.7002 6.59995V28.6C46.7002 29.7669 46.2366 30.8861 45.4115 31.7112C44.5863 32.5364 43.4672 33 42.3002 33H24.7002C23.5332 33 22.4141 33.4635 21.5889 34.2887C20.7638 35.1138 20.3002 36.233 20.3002 37.4V59.4C20.3002 60.5669 20.7638 61.6861 21.5889 62.5112C22.4141 63.3364 23.5332 63.8 24.7002 63.8H42.3002C43.4672 63.8 44.5863 63.3364 45.4115 62.5112C46.2366 61.6861 46.7002 60.5669 46.7002 59.4V48.4M35.7002 19.8H7.1002C5.93324 19.8 4.81409 20.2635 3.98893 21.0887C3.16377 21.9138 2.7002 23.033 2.7002 24.2V46.2C2.7002 47.3669 3.16377 48.4861 3.98893 49.3112C4.81409 50.1364 5.93324 50.6 7.1002 50.6H20.3002M31.3002 46.2H59.9002C61.0672 46.2 62.1863 45.7364 63.0115 44.9112C63.8366 44.0861 64.3002 42.9669 64.3002 41.8V19.8C64.3002 18.633 63.8366 17.5138 63.0115 16.6887C62.1863 15.8635 61.0672 15.4 59.9002 15.4H46.7002M35.7002 55H40.1002" stroke="white" stroke-opacity="0.55" stroke-width="3.5767"/>
</g>
<defs>
<clipPath id="clip0_75_127">
<rect width="66" height="66" fill="white" transform="translate(0.5)"/>
</clipPath>
</defs>
</svg>
