<svg width="67" height="66" viewBox="0 0 67 66" fill="none" xmlns="http://www.w3.org/2000/svg">
<path d="M40.2322 44.6601C38.7597 46.754 37.155 48.7518 35.428 50.6413C40.0287 55.1046 44.305 57.1946 46.6782 55.8223C49.0515 54.4529 49.3787 49.7036 47.814 43.4913C45.4682 44.0138 42.9217 44.4126 40.2322 44.6601ZM36.6297 44.8966C34.5452 44.983 32.458 44.983 30.3735 44.8966C31.4075 46.2496 32.458 47.5036 33.5002 48.6448C34.5452 47.5036 35.593 46.2523 36.6297 44.8966ZM50.4897 23.1853C57.8185 25.2863 62.6062 28.7788 62.6062 32.9946C62.6062 37.2103 57.8212 40.7028 50.4925 42.8038C52.335 50.2013 51.7025 56.0919 48.0532 58.1984C44.404 60.3076 38.9865 57.9096 33.5002 52.6131C28.0167 57.9068 22.5992 60.3076 18.95 58.1984C15.298 56.0919 14.6682 50.2013 16.5107 42.8038C9.18197 40.7028 4.39697 37.2103 4.39697 32.9946C4.39697 28.7788 9.18197 25.2863 16.5107 23.1853C14.6682 15.7878 15.3007 9.89735 18.95 7.78809C22.5992 5.68159 28.0167 8.07959 33.5002 13.3761C38.9865 8.07959 44.404 5.68159 48.0532 7.78809C51.7025 9.89735 52.335 15.7878 50.4925 23.1853M47.8167 22.5033C49.3842 16.2883 49.0542 11.5418 46.681 10.1696C44.3077 8.80009 40.0315 10.8901 35.4335 15.3533C37.1593 17.2432 38.763 19.241 40.235 21.3346C42.9245 21.5821 45.471 21.9781 47.8167 22.5033ZM19.1892 43.4858C17.6245 49.7008 17.9517 54.4474 20.3277 55.8169C22.701 57.1864 26.9772 55.0991 31.5752 50.6358C29.849 48.7454 28.2452 46.7467 26.7737 44.6518C24.2242 44.4239 21.6918 44.0335 19.192 43.4831M30.379 21.0926C32.4635 21.0063 34.5507 21.0063 36.6352 21.0926C35.6446 19.8013 34.5986 18.5535 33.5002 17.3526C32.4552 18.4966 31.4102 19.7506 30.3735 21.1036M26.771 21.3428C28.2426 19.2489 29.8463 17.2511 31.5725 15.3616C26.9745 10.8956 22.6982 8.80559 20.3277 10.1751C17.9545 11.5473 17.6245 16.2966 19.192 22.5088C21.5377 21.9863 24.0842 21.5903 26.7737 21.3401M38.7087 42.0201C40.6672 39.1474 42.4082 36.1323 43.9172 33.0001C42.4092 29.8679 40.6691 26.8528 38.7115 23.9801C35.2449 23.7206 31.7638 23.7206 28.2972 23.9801C26.3378 26.8527 24.5958 29.8678 23.086 33.0001C24.5951 36.1322 26.3362 39.1473 28.2945 42.0201C31.7611 42.2793 35.2421 42.2793 38.7087 42.0201ZM42.2425 41.6571C43.9337 41.4371 45.5425 41.1566 47.055 40.8238C46.5604 39.2722 45.9989 37.7427 45.372 36.2396C44.4048 38.0877 43.3616 39.8951 42.2452 41.6571M24.7635 24.3403C23.0722 24.5603 21.4635 24.8436 19.951 25.1763C20.4185 26.6503 20.9822 28.1848 21.6367 29.7606C22.6039 27.9124 23.647 26.1051 24.7635 24.3431M19.951 40.8266C21.4635 41.1593 23.0722 41.4398 24.7635 41.6598C23.647 39.8979 22.6039 38.0905 21.6367 36.2423C21.0089 37.7454 20.4464 39.2749 19.951 40.8266ZM17.2615 40.1528C17.982 37.8593 18.9115 35.4558 20.039 33.0028C18.962 30.681 18.0343 28.2928 17.2615 25.8528C11.0987 27.6018 7.14972 30.2638 7.14972 33.0028C7.14972 35.7418 11.0987 38.4011 17.2615 40.1528ZM47.0577 25.1763C45.4664 24.8282 43.8607 24.5493 42.2452 24.3403C43.3616 26.1024 44.4048 27.9097 45.372 29.7578C46.0265 28.1848 46.5875 26.6503 47.0577 25.1763ZM49.7445 25.8501C49.0295 28.1436 48.0945 30.5471 46.967 33.0001C48.0945 35.4531 49.0295 37.8566 49.7445 40.1501C55.91 38.3983 59.859 35.7391 59.859 33.0001C59.859 30.2611 55.91 27.6018 49.7445 25.8501ZM33.5002 38.1673C32.8075 38.1899 32.1172 38.073 31.4706 37.8235C30.8239 37.574 30.234 37.197 29.736 36.715C29.2379 36.2329 28.8419 35.6556 28.5715 35.0175C28.301 34.3793 28.1616 33.6932 28.1616 33.0001C28.1616 32.307 28.301 31.6209 28.5715 30.9827C28.8419 30.3446 29.2379 29.7673 29.736 29.2852C30.234 28.8032 30.8239 28.4262 31.4706 28.1767C32.1172 27.9272 32.8075 27.8102 33.5002 27.8328C34.8415 27.8766 36.1132 28.4402 37.0465 29.4045C37.9798 30.3687 38.5016 31.6581 38.5016 33.0001C38.5016 34.3421 37.9798 35.6315 37.0465 36.5957C36.1132 37.56 34.8415 38.1236 33.5002 38.1673Z" fill="white" fill-opacity="0.55"/>
</svg>
